<svg width="44" height="133" viewBox="0 0 44 133" fill="none" xmlns="http://www.w3.org/2000/svg">
<g id="Group 9075">
<g id="Group 9069">
<rect id="Rectangle 2059" x="29.9091" y="62.5454" width="5.63636" height="5.63636" rx="2" transform="rotate(180 29.9091 62.5454)" fill="#FF0000"/>
<rect id="Rectangle 2061" x="29.9092" y="34.3636" width="5.63636" height="5.63636" rx="2" transform="rotate(180 29.9092 34.3636)" fill="#FF0000"/>
<rect id="Rectangle 2060" x="29.9092" y="48.4546" width="5.63636" height="5.63636" rx="2" transform="rotate(180 29.9092 48.4546)" fill="#FF0000"/>
<rect id="Rectangle 2062" x="29.9092" y="20.2727" width="5.63636" height="5.63636" rx="2" transform="rotate(180 29.9092 20.2727)" fill="#FF0000"/>
<rect id="Rectangle 2063" x="29.9092" y="6.18182" width="5.63636" height="5.63636" rx="2" transform="rotate(180 29.9092 6.18182)" fill="#FF0000"/>
</g>
<g id="Group 9065">
<rect id="Rectangle 2059_2" width="5.63636" height="5.63636" rx="2" transform="matrix(-1 0 0 1 1.72729 70.9999)" fill="#FF0000"/>
<rect id="Rectangle 2061_2" width="5.63636" height="5.63636" rx="2" transform="matrix(-1 0 0 1 1.72729 99.1818)" fill="#FF0000"/>
<rect id="Rectangle 2060_2" width="5.63636" height="5.63636" rx="2" transform="matrix(-1 0 0 1 1.72729 85.0909)" fill="#FF0000"/>
<rect id="Rectangle 2062_2" width="5.63636" height="5.63636" rx="2" transform="matrix(-1 0 0 1 1.72729 113.273)" fill="#FF0000"/>
<rect id="Rectangle 2063_2" width="5.63636" height="5.63636" rx="2" transform="matrix(-1 0 0 1 1.72729 127.364)" fill="#FF0000"/>
</g>
<g id="Group 9070">
<rect id="Rectangle 2059_3" x="44" y="62.5454" width="5.63636" height="5.63636" rx="2" transform="rotate(180 44 62.5454)" fill="#FF0000"/>
<rect id="Rectangle 2061_3" x="44" y="34.3636" width="5.63636" height="5.63636" rx="2" transform="rotate(180 44 34.3636)" fill="#FF0000"/>
<rect id="Rectangle 2060_3" x="44" y="48.4546" width="5.63636" height="5.63636" rx="2" transform="rotate(180 44 48.4546)" fill="#FF0000"/>
<rect id="Rectangle 2062_3" x="44" y="20.2727" width="5.63636" height="5.63636" rx="2" transform="rotate(180 44 20.2727)" fill="#FF0000"/>
<rect id="Rectangle 2063_3" x="44" y="6.18182" width="5.63636" height="5.63636" rx="2" transform="rotate(180 44 6.18182)" fill="#FF0000"/>
</g>
<g id="Group 9067">
<rect id="Rectangle 2059_4" width="5.63636" height="5.63636" rx="2" transform="matrix(-1 0 0 1 15.8182 0.54541)" fill="#0DB760"/>
<rect id="Rectangle 2061_4" width="5.63636" height="5.63636" rx="2" transform="matrix(-1 0 0 1 15.8181 28.7273)" fill="#0DB760"/>
<rect id="Rectangle 2060_4" width="5.63636" height="5.63636" rx="2" transform="matrix(-1 0 0 1 15.8181 14.6364)" fill="#0DB760"/>
<rect id="Rectangle 2062_4" width="5.63636" height="5.63636" rx="2" transform="matrix(-1 0 0 1 15.8181 42.8182)" fill="#0DB760"/>
<rect id="Rectangle 2063_4" width="5.63636" height="5.63636" rx="2" transform="matrix(-1 0 0 1 15.8181 56.9091)" fill="#0DB760"/>
</g>
<g id="Group 9071">
<rect id="Rectangle 2059_5" x="29.9091" y="133" width="5.63636" height="5.63636" rx="2" transform="rotate(180 29.9091 133)" fill="#0DB760"/>
<rect id="Rectangle 2061_5" x="29.9092" y="104.818" width="5.63636" height="5.63636" rx="2" transform="rotate(180 29.9092 104.818)" fill="#0DB760"/>
<rect id="Rectangle 2060_5" x="29.9092" y="118.909" width="5.63636" height="5.63636" rx="2" transform="rotate(180 29.9092 118.909)" fill="#0DB760"/>
<rect id="Rectangle 2062_5" x="29.9092" y="90.7272" width="5.63636" height="5.63636" rx="2" transform="rotate(180 29.9092 90.7272)" fill="#0DB760"/>
<rect id="Rectangle 2063_5" x="29.9092" y="76.6363" width="5.63636" height="5.63636" rx="2" transform="rotate(180 29.9092 76.6363)" fill="#0DB760"/>
</g>
<g id="Group 9066">
<rect id="Rectangle 2059_6" width="5.63636" height="5.63636" rx="2" transform="matrix(-1 0 0 1 1.72729 0.54541)" fill="#0DB760"/>
<rect id="Rectangle 2061_6" width="5.63636" height="5.63636" rx="2" transform="matrix(-1 0 0 1 1.72729 28.7273)" fill="#0DB760"/>
<rect id="Rectangle 2060_6" width="5.63636" height="5.63636" rx="2" transform="matrix(-1 0 0 1 1.72729 14.6364)" fill="#0DB760"/>
<rect id="Rectangle 2062_6" width="5.63636" height="5.63636" rx="2" transform="matrix(-1 0 0 1 1.72729 42.8182)" fill="#0DB760"/>
<rect id="Rectangle 2063_6" width="5.63636" height="5.63636" rx="2" transform="matrix(-1 0 0 1 1.72729 56.9091)" fill="#0DB760"/>
</g>
<g id="Group 9072">
<rect id="Rectangle 2059_7" x="44" y="133" width="5.63636" height="5.63636" rx="2" transform="rotate(180 44 133)" fill="#0DB760"/>
<rect id="Rectangle 2061_7" x="44" y="104.818" width="5.63636" height="5.63636" rx="2" transform="rotate(180 44 104.818)" fill="#0DB760"/>
<rect id="Rectangle 2060_7" x="44" y="118.909" width="5.63636" height="5.63636" rx="2" transform="rotate(180 44 118.909)" fill="#0DB760"/>
<rect id="Rectangle 2062_7" x="44" y="90.7272" width="5.63636" height="5.63636" rx="2" transform="rotate(180 44 90.7272)" fill="#0DB760"/>
<rect id="Rectangle 2063_7" x="44" y="76.6363" width="5.63636" height="5.63636" rx="2" transform="rotate(180 44 76.6363)" fill="#0DB760"/>
</g>
<g id="Group 9068">
<rect id="Rectangle 2059_8" width="5.63636" height="5.63636" rx="2" transform="matrix(-1 0 0 1 15.8182 70.9999)" fill="#0DB760"/>
<rect id="Rectangle 2061_8" width="5.63636" height="5.63636" rx="2" transform="matrix(-1 0 0 1 15.8181 99.1818)" fill="#0DB760"/>
<rect id="Rectangle 2060_8" width="5.63636" height="5.63636" rx="2" transform="matrix(-1 0 0 1 15.8181 85.0909)" fill="#0DB760"/>
<rect id="Rectangle 2062_8" width="5.63636" height="5.63636" rx="2" transform="matrix(-1 0 0 1 15.8181 113.273)" fill="#0DB760"/>
<rect id="Rectangle 2063_8" width="5.63636" height="5.63636" rx="2" transform="matrix(-1 0 0 1 15.8181 127.364)" fill="#0DB760"/>
</g>
</g>
</svg>
